<?xml version="1.0" encoding="UTF-8"?>
<!--
  - This file is part of hsas_h4o5f_app.
  - Copyright (c) 2023 HSAS H4o5F Team. All Rights Reserved.
  -
  - hsas_h4o5f_app is free software: you can redistribute it and/or modify it
  - under the terms of the GNU General Public License as published by the Free
  - Software Foundation, either version 3 of the License, or (at your option) any
  - later version.
  -
  - hsas_h4o5f_app is distributed in the hope that it will be useful, but WITHOUT
  - ANY WARRANTY; without even the implied warranty of MERCHANTABILITY or FITNESS
  - FOR A PARTICULAR PURPOSE. See the GNU General Public License for more
  - details.
  -
  - You should have received a copy of the GNU General Public License along with
  - hsas_h4o5f_app. If not, see <https://www.gnu.org/licenses/>.
  -->

<svg xmlns="http://www.w3.org/2000/svg" viewBox="0 0 512 512">
    <polygon
            points="440.35697 243.58087 440.35697 236.55157 408.97514 236.55157 408.97514 288.38116 416.6431 288.38116 416.6431 266.15851 438.51127 266.15851 438.51127 259.05841 416.5015 259.05841 416.5015 243.58087 440.35697 243.58087"
            fill="#184e61"/>
    <path d="M384.51615,259.59113c-2.72168-2.62695-6.54395-3.94043-11.46582-3.94043h-7.66797l-.07129-12.14111h21.37109v-6.95801h-28.61328v25.91504h14.62598c2.55664,0,4.56738,.74561,6.03516,2.23584,1.4668,1.49121,2.20117,3.51465,2.20117,6.07129v3.26562c0,2.60352-.75781,4.63965-2.27246,6.10645s-3.57422,2.2002-6.17676,2.2002c-2.60352,0-4.6748-.7334-6.21191-2.2002-1.53906-1.4668-2.30762-3.45508-2.30762-5.96484h-7.66797c0,4.5918,1.45508,8.22559,4.36621,10.89844,2.91113,2.6748,6.82715,4.01172,11.75,4.01172,5.0166,0,8.96973-1.34863,11.85742-4.04688,2.88672-2.69824,4.33105-6.36523,4.33105-11.00488v-3.26562c0-4.82812-1.36133-8.55566-4.08301-11.18262Z"
          fill="#184e61"/>
    <path d="M333.07767,252.84601c-2.83984-2.76904-6.69824-4.15332-11.57324-4.15332-4.87598,0-8.7334,1.38428-11.57324,4.15332s-4.25977,6.59229-4.25977,11.4668v9.08789c0,4.82812,1.43066,8.6377,4.2959,11.43066,2.86328,2.79297,6.70898,4.18848,11.53711,4.18848s8.67285-1.39551,11.53711-4.18848c2.86328-2.79297,4.2959-6.60254,4.2959-11.43066v-9.08789c0-4.87451-1.41992-8.69775-4.25977-11.4668Zm-3.4082,21.05176c0,2.69727-.72266,4.76855-2.16602,6.21191-1.44434,1.44434-3.44336,2.16504-5.99902,2.16504s-4.55664-.7207-6-2.16504c-1.44434-1.44336-2.16504-3.51465-2.16504-6.21191v-10.08203c0-2.69824,.7207-4.76807,2.16504-6.2124,1.44336-1.44336,3.44434-2.16553,6-2.16553s4.55469,.72217,5.99902,2.16553c1.44336,1.44434,2.16602,3.51416,2.16602,6.2124v10.08203Z"
          fill="#184e61"/>
    <polygon
            points="276.70463 258.56183 276.70463 270.70245 261.01273 270.70245 261.01273 268.00421 281.106 236.55157 272.51517 236.55157 253.55814 266.08722 253.55814 277.58917 276.70463 277.58917 276.70463 288.38116 284.3726 288.38116 284.3726 258.56183 276.70463 258.56183"
            fill="#184e61"/>
    <polygon
            points="226.57865 236.55157 226.57865 258.13556 211.3848 258.13556 211.3848 236.55157 203.71684 236.55157 203.71684 288.38116 211.3848 288.38116 211.3848 265.02277 226.57865 265.02277 226.57865 288.38116 234.24662 288.38116 234.24662 236.55157 226.57865 236.55157"
            fill="#184e61"/>
    <polygon
            points="81.63704 286.12456 78.75033 281.12456 76.41958 285.16148 71.64316 288.63176 73.46762 294.24674 79.37154 294.24674 81.196 288.63176 80.48696 288.11662 81.63704 286.12456"
            fill="#072d46"/>
    <polygon
            points="92.89539 274.00763 86.07801 274.00763 82.66933 279.91192 86.07801 285.81621 92.89539 285.81621 96.30407 279.91192 92.89539 274.00763"
            fill="#1fb0a9"/>
    <polygon
            points="147.06016 282.76476 142.40062 278.10516 142.40062 291.50889 139.01245 293.97055 141.19652 300.69247 148.26432 300.69247 150.4484 293.97055 147.06016 291.50889 147.06016 282.76476"
            fill="#072d46"/>
    <path d="M151.13468,275.38184v-20.00003s0-12.25529,0-12.25529h-10.21275v12.25529s6.1383,.03186,6.1383,.03186v15.89365s-5.72875,5.72869-5.72875,5.72869l5.72869,5.72875,5.72875-5.72869-1.65423-1.65423Zm-6.91491-23.38296v-5.40429s3.78723,0,3.78723,0v5.40429s-3.78723,0-3.78723,0Z"
          fill="#1fb0a9"/>
    <rect x="133.14533" y="235.02016" width="4.76595" height="53.36162" fill="#072d46"/>
    <polygon
            points="128.20918 284.04747 128.20918 239.94048 111.10288 228.04145 111.10282 251.83927 111.10288 251.83921 111.10288 287.38176 116.29434 287.38176 116.29434 248.22819 123.61342 243.13719 123.61342 283.13628 119.56625 286.07671 121.75033 292.79862 128.81812 292.79862 131.0022 286.07671 128.20918 284.04747"
            fill="#072d46"/>
    <path d="M108.28764,292.23142l-1.3125-1.1864v-21.55685s0-24.76589,0-24.76589h-14.4893v24.76589h8.43737s0,16.08628,0,16.08628l-2.14819-1.94183-2.04541,3.54278,8.25121,7.45855-1.90973,1.38751,2.30597,7.0971h7.46233s2.30597-7.0971,2.30597-7.0971l-6.03716-4.38622-.82056,.59619Zm-8.07842-29.38155h-4.53191s0-5.55315,0-5.55315h4.53191s0,5.55315,0,5.55315Zm0-8.42552h-4.53191s0-5.17016,0-5.17016h4.53191s0,5.17016,0,5.17016Z"
          fill="#072d46"/>
    <polygon
            points="161.93093 285.60515 161.93093 280.71075 161.93093 232.82459 120.4598 208.88126 78.98867 232.82459 78.98867 278.28643 83.76845 270.00764 83.98866 270.00764 83.98866 235.7113 120.4598 214.65469 156.93094 235.7113 156.93094 277.82403 156.93094 283.59758 156.93094 289.23783 156.37253 289.64353 158.49563 296.17789 165.36623 296.17789 167.48933 289.64353 161.93093 285.60515"
            fill="#072d46"/>
</svg>